<svg width="24" height="24" viewBox="0 0 24 24" fill="none" xmlns="http://www.w3.org/2000/svg">
<path d="M16.9843 2.5002H6.49433C5.89985 2.49966 5.31115 2.61692 4.76225 2.8452C4.21334 3.07348 3.71511 3.40826 3.29633 3.8302C2.87918 4.25079 2.54979 4.75009 2.3273 5.2991C2.10482 5.84811 1.99367 6.43586 2.00033 7.0282V17.4722C1.99312 18.0646 2.10401 18.6525 2.32652 19.2016C2.54904 19.7507 2.87873 20.2499 3.29633 20.6702C3.71499 21.092 4.21306 21.4267 4.76179 21.655C5.31051 21.8833 5.89902 22.0006 6.49333 22.0002H11.2563V15.0342H9.43633C9.32367 15.0334 9.21581 14.9885 9.13596 14.909C9.05611 14.8295 9.01064 14.7219 9.00933 14.6092V12.3732C9.0092 12.3157 9.02045 12.2588 9.04244 12.2057C9.06443 12.1526 9.09672 12.1044 9.13744 12.0639C9.17817 12.0234 9.22652 11.9913 9.27971 11.9695C9.3329 11.9478 9.38987 11.9368 9.44733 11.9372H11.2563V9.7572C11.2056 9.24197 11.2685 8.7219 11.4406 8.23362C11.6127 7.74534 11.8898 7.30076 12.2523 6.9312C12.6153 6.55996 13.0548 6.27235 13.5403 6.08842C14.0258 5.90448 14.5455 5.82864 15.0633 5.8662H16.9173C16.9741 5.86659 17.0301 5.8782 17.0824 5.90036C17.1346 5.92252 17.1819 5.95479 17.2216 5.99532C17.2613 6.03584 17.2926 6.08382 17.3136 6.13649C17.3347 6.18916 17.3451 6.24548 17.3443 6.3022V8.1922C17.3443 8.24813 17.3333 8.30351 17.3118 8.35515C17.2903 8.40679 17.2588 8.45366 17.2191 8.49308C17.1794 8.53249 17.1323 8.56366 17.0805 8.58479C17.0287 8.60592 16.9733 8.61659 16.9173 8.6162H15.7943C14.5583 8.6162 14.3223 9.1982 14.3223 10.0472V11.9262H17.0183C17.0791 11.9259 17.1393 11.9385 17.1948 11.9633C17.2503 11.988 17.2999 12.0243 17.3403 12.0697C17.3807 12.1151 17.4109 12.1686 17.4291 12.2266C17.4472 12.2847 17.4527 12.3459 17.4453 12.4062L17.1753 14.6432C17.1644 14.7484 17.1145 14.8457 17.0355 14.916C16.9565 14.9863 16.8541 15.0245 16.7483 15.0232H14.3333V21.9892H17.0073C17.6016 21.9896 18.1902 21.8723 18.7389 21.644C19.2876 21.4157 19.7857 21.081 20.2043 20.6592C20.6216 20.2385 20.9511 19.739 21.1735 19.1898C21.396 18.6406 21.5071 18.0527 21.5003 17.4602V7.0282C21.5081 6.4338 21.3968 5.84387 21.1728 5.29323C20.9488 4.74259 20.6168 4.2424 20.1963 3.8222C19.7752 3.40002 19.2744 3.06575 18.723 2.8388C18.1716 2.61185 17.5806 2.49676 16.9843 2.5002Z" fill="#0866FF"/>
</svg>
