<svg width="19" height="20" viewBox="0 0 19 20" fill="none" xmlns="http://www.w3.org/2000/svg">
<path d="M9.36632 6.98175C7.64601 6.98175 6.2421 8.38566 6.2421 10.106C6.2421 11.8263 7.64601 13.2302 9.36632 13.2302C11.0866 13.2302 12.4905 11.8263 12.4905 10.106C12.4905 8.38566 11.0866 6.98175 9.36632 6.98175ZM18.7366 10.106C18.7366 8.81222 18.7484 7.53019 18.6757 6.23878C18.603 4.73878 18.2609 3.40753 17.164 2.31066C16.0648 1.21144 14.7359 0.871596 13.2359 0.798939C11.9421 0.726283 10.6601 0.738002 9.36866 0.738002C8.07491 0.738002 6.79288 0.726283 5.50148 0.798939C4.00148 0.871596 2.67023 1.21378 1.57335 2.31066C0.474135 3.40988 0.134291 4.73878 0.0616346 6.23878C-0.0110216 7.53253 0.000697135 8.81456 0.000697135 10.106C0.000697135 11.3974 -0.0110216 12.6818 0.0616346 13.9732C0.134291 15.4732 0.476478 16.8044 1.57335 17.9013C2.67257 19.0005 4.00148 19.3403 5.50148 19.413C6.79523 19.4857 8.07726 19.4739 9.36866 19.4739C10.6624 19.4739 11.9444 19.4857 13.2359 19.413C14.7359 19.3403 16.0671 18.9982 17.164 17.9013C18.2632 16.8021 18.603 15.4732 18.6757 13.9732C18.7507 12.6818 18.7366 11.3997 18.7366 10.106ZM9.36632 14.913C6.70617 14.913 4.55929 12.7661 4.55929 10.106C4.55929 7.44581 6.70617 5.29894 9.36632 5.29894C12.0265 5.29894 14.1734 7.44581 14.1734 10.106C14.1734 12.7661 12.0265 14.913 9.36632 14.913ZM14.3702 6.22472C13.7491 6.22472 13.2476 5.72316 13.2476 5.10206C13.2476 4.48097 13.7491 3.97941 14.3702 3.97941C14.9913 3.97941 15.4929 4.48097 15.4929 5.10206C15.4931 5.24955 15.4642 5.39561 15.4078 5.53191C15.3515 5.6682 15.2688 5.79203 15.1645 5.89631C15.0602 6.0006 14.9364 6.08329 14.8001 6.13964C14.6638 6.19599 14.5177 6.22491 14.3702 6.22472Z" fill="url(#paint0_linear_74_350)"/>
<defs>
<linearGradient id="paint0_linear_74_350" x1="9.36884" y1="0.737305" x2="9.36884" y2="19.4746" gradientUnits="userSpaceOnUse">
<stop stop-color="#FFB55E"/>
<stop offset="0.305" stop-color="#E052B8"/>
<stop offset="0.64" stop-color="#BE469C"/>
<stop offset="1" stop-color="#68054C"/>
</linearGradient>
</defs>
</svg>
