<svg width="24" height="21" viewBox="0 0 24 21" fill="none" xmlns="http://www.w3.org/2000/svg">
<path d="M24 2.25V18.75C24 19.9922 22.8482 21 21.4286 21H8.27143C8.79643 20.2313 9.47143 19.125 9.73929 18.2203C9.9 17.6813 10.5589 15.4828 10.5589 15.4828C10.9875 16.2 12.2411 16.8047 13.575 16.8047C17.5446 16.8047 20.4 13.6125 20.4 9.64688C20.4 5.84531 16.8536 3 12.2893 3C6.61071 3 3.6 6.33281 3.6 9.96563C3.6 11.6531 4.62857 13.7531 6.26786 14.4234C6.51964 14.5266 6.64821 14.4797 6.70714 14.2687C6.75 14.1094 6.975 13.3266 7.07143 12.9656C7.10357 12.8484 7.0875 12.75 6.98036 12.6375C6.43929 12.0609 6 11.0016 6 10.0125C6 7.47188 8.19643 5.01562 11.9411 5.01562C15.1714 5.01562 17.4375 6.94219 17.4375 9.69844C17.4375 12.8109 15.6429 14.9672 13.3018 14.9672C12.0107 14.9672 11.0464 14.0344 11.3518 12.8859C11.7214 11.5172 12.4393 10.0406 12.4393 9.05156C12.4393 6.56719 8.39464 6.90938 8.39464 10.2234C8.39464 11.2406 8.78571 11.9344 8.78571 11.9344C7.10357 18.1594 6.85179 18.2391 7.2 20.9625L7.31786 21H2.57143C1.15179 21 0 19.9922 0 18.75V2.25C0 1.00781 1.15179 0 2.57143 0H21.4286C22.8482 0 24 1.00781 24 2.25Z" fill="#FF0000"/>
</svg>
