<svg width="21" height="17" viewBox="0 0 21 17" fill="none" xmlns="http://www.w3.org/2000/svg">
<path d="M20.4684 3.2675C20.3801 2.92189 20.2109 2.60224 19.9747 2.33491C19.7385 2.06758 19.4421 1.86024 19.11 1.73C15.8962 0.488753 10.7812 0.500004 10.5 0.500004C10.2188 0.500004 5.10375 0.488753 1.89 1.73C1.5579 1.86024 1.26153 2.06758 1.02534 2.33491C0.789145 2.60224 0.619899 2.92189 0.531563 3.2675C0.28875 4.20313 0 5.91313 0 8.75C0 11.5869 0.28875 13.2969 0.531563 14.2325C0.619767 14.5783 0.788954 14.8981 1.02515 15.1656C1.26136 15.4331 1.5578 15.6406 1.89 15.7709C4.96875 16.9588 9.7875 17 10.4381 17H10.5619C11.2125 17 16.0341 16.9588 19.11 15.7709C19.4422 15.6406 19.7386 15.4331 19.9748 15.1656C20.211 14.8981 20.3802 14.5783 20.4684 14.2325C20.7113 13.295 21 11.5869 21 8.75C21 5.91313 20.7113 4.20313 20.4684 3.2675ZM13.5553 9.36125L9.80531 11.9863C9.69314 12.0648 9.56158 12.1112 9.42492 12.1203C9.28826 12.1294 9.15172 12.101 9.0301 12.038C8.90847 11.975 8.80642 11.8799 8.73501 11.763C8.6636 11.6462 8.62555 11.512 8.625 11.375V6.125C8.62504 5.9878 8.66271 5.85324 8.73392 5.73597C8.80513 5.61869 8.90714 5.52319 9.02885 5.45987C9.15057 5.39655 9.28732 5.36783 9.42422 5.37683C9.56113 5.38584 9.69294 5.43222 9.80531 5.51094L13.5553 8.13594C13.654 8.20512 13.7345 8.29704 13.7901 8.40393C13.8457 8.51081 13.8747 8.62952 13.8747 8.75C13.8747 8.87049 13.8457 8.98919 13.7901 9.09608C13.7345 9.20297 13.654 9.29489 13.5553 9.36407V9.36125Z" fill="#FF0000"/>
</svg>
